<?xml version="1.0" encoding="utf-8"?>
<!-- Generator: Adobe Illustrator 24.0.2, SVG Export Plug-In . SVG Version: 6.00 Build 0)  -->
<svg version="1.1" id="Layer_1" xmlns="http://www.w3.org/2000/svg" xmlns:xlink="http://www.w3.org/1999/xlink" x="0px" y="0px"
	 viewBox="0 0 1600 198" style="enable-background:new 0 0 1600 198;" xml:space="preserve">
<style type="text/css">
	.st0{display:none;}
	.st1{display:inline;}
	.st2{fill:#F7E4BC;}
	.st3{clip-path:url(#SVGID_2_);}
	.st4{fill:#FEEAC9;}
	.st5{fill:#FDF5E0;}
	.st6{display:none;fill:#CCEAD2;}
	.st7{display:none;fill:#5FD1D1;}
	.st8{display:none;fill:#4BBDBD;}
	.st9{fill:#F0D1A1;}
</style>
<g class="st0">
	<g class="st1">
		<polygon class="st2" points="0,0 0,198 1065.9,198 1600,198 1600,77.4 1600,0 		"/>
	</g>
</g>
<g>
	<defs>
		<polygon id="SVGID_1_" points="0,0 0,198 1065.9,198 1600,198 1600,77.4 1600,0 		"/>
	</defs>
	<clipPath id="SVGID_2_">
		<use xlink:href="#SVGID_1_"  style="overflow:visible;"/>
	</clipPath>
	<g class="st3">
		<g>
			<path class="st4" d="M226.3,21.6c46.2,9,93.8,11.7,141.3,12.9c115.4,2.7,231.4-3.9,346.4-19.6c52.7-7.2,106.4-16.4,158.4-8.2
				c52.8,8.4,100,34.1,151.2,48.5c173.6,48.7,371.1-38,544.6,10.9c18.6,5.3,37.7,12.7,49.2,27.5c13.9,17.8,13.9,43.4,4.5,64.6
				c-9.4,21.2-26.9,38.4-46,52.6c-80.8,60.1-186.9,71.6-286.1,90.1c-120.9,22.5-240.1,58.5-362.3,68.5
				c-134.8,11-268.5-10-402.2-21.6c-93.2-8.1-187.7-11.7-277.4-35c-49.5-12.9-96.8-31.7-144-50.4c-52.2-20.7-109-45.8-130.1-95.9
				C-48.9,112.6-11,64.5,32,31.1C91.2-14.8,160.8,8.8,226.3,21.6z"/>
			<path class="st5" d="M420.7,132c144.6-5,292-30.8,432-4.2c96.6,18.4,187.9,61.4,287.7,57.6c75.4-2.9,147.1-32.4,221.6-45.6
				c87.9-15.6,177.8-8.2,266.1-0.7c14.9,1.3,30.8,2.9,42.1,11.1c11.7,8.6,16.1,22.5,19.8,35.6c19.1,68.3,35,141.5,8.1,209.4
				c-11.5,29-30.3,55.6-49,81.9c-17.5,24.6-35.3,49.6-60.1,68.9c-41.1,32-96.4,44.7-149.5,55.3c-270.5,53.9-553,79.7-818.7,26.5
				C462.8,596,311.9,536.9,149.1,530c-39.8-1.7-82.6-0.9-114.6-20.6c-43.7-26.9-50.3-80.6-53.1-128c-4.3-71.8-8.2-145.9,19.7-214.7
				c7.1-17.6,32-111.5,50-118.1c16.4-6,85.1,42.5,105.5,49.9C238.6,128.4,331.3,135,420.7,132z"/>
			<path class="st6" d="M814.8,196.4c46.6,14.2,91.6,36.8,141.1,37.1c29.7,0.2,59-7.6,88.3-13.1c68.5-12.8,138.9-13.2,206.5-1.1
				c30.4,5.5,60.5,13.5,91.7,13.2c36.4-0.3,72.1-11.9,107.3-22.3c42.7-12.6,85.9-23.6,129.4-33c24.7-5.3,50.6-10.1,74.6-4.1
				c55.4,13.8,77.7,78,73.6,133.3c-7.6,100.3-72.1,190.2-140.9,268.6c-44.8,51.1-92.9,100.2-148.7,140.1
				c-78.4,56-170.1,92.2-263.3,117.7c-223.6,61.2-460.4,63.4-684,20.2C311.7,818.6,141.7,756.1-27.4,694c-12.4-4.5-25.2-9.4-33.7-19
				c-8-9-11.1-21.1-13.7-32.8c-21.7-95.9-27.3-195.7-17.3-294.6c6.8-67.3,10.6-187.9,78.7-230.8c67-42.3,141,8.6,201.2,31
				c94.4,35.1,196,35.9,297.4,31.4C595.4,174.4,709.3,164.1,814.8,196.4z"/>
			<path class="st7" d="M200.2,272.1c133.8,31,279.4-20.5,414.9,4c50.8,9.2,98.7,28.8,150,35.6c106,14.1,214.4-27.5,321.9-25
				c47.5,1.1,94.6,10.8,142,5.5c65-7.3,125.2-42.3,190.3-48.3c48.2-4.4,96.7,7.4,144.3-1.5c51.4-9.6,98-42.7,150-44.3
				c8-0.3,16.3,0.3,23.2,4c7.6,4,12.6,11.3,16.9,18.5c36,61.4,35.2,139,12.5,208.2c-22.7,69.2-65.2,131.4-110.3,190.4
				c-35.1,45.9-72.1,90.8-114.7,130.5c-56.3,52.5-121.5,95.5-188.9,133.9c-105.7,60.2-217.8,109.6-333.6,147.3
				c-85.1,27.7-173.5,49.1-262.2,48.9c-99-0.2-194.5-27.2-287.7-56c-99.8-30.9-198.8-64.1-295.3-102.7
				c-40.9-16.4-81.9-34-115.2-61.7c-24.7-20.5-44.3-46-65.3-69.9c-49.7-56.8-110.8-111.1-123.4-185.2c-4.9-28.9-1.9-58.7,1.1-88.2
				c6.8-66.5,13.7-133.1,20.5-199.6c4.5-43.6-5.5-136.2,35.1-167.3c44.3-33.9,91.5,29.8,123.3,52C94.7,232.6,145,260,200.2,272.1z"
				/>
			<path class="st8" d="M315.5,401.1c42.4,13.9,82.4,35.1,127.1,41.5c80.2,11.5,160.3-25.9,241.3-38.6
				c109.8-17.3,219.8,11.3,321.6,48.6c26.7,9.8,54.1,20.8,73.3,40.9c21.8,22.7,30.7,55.2,28.3,86.6c-2.5,31.4-15.5,61.9-33.1,89.1
				c-24.6,38-58,70.4-94,99c-87.6,69.5-192.9,118.1-302.9,139.9c-90.1,17.9-186,17.4-268.1-17.8c-81.8-35.1-142.9-101.1-201.2-165.7
				c-25.5-28.3-51.5-57.4-64.5-92.9c-22.1-60.1-0.2-141.5-46.5-191.5c-15.4-16.6-42-29-8.9-44.6c30.6-14.5,74.4-14.6,107.3-14.2
				C236.2,381.9,277,388.5,315.5,401.1z"/>
		</g>
		<g>
			<path class="st9" d="M205.7,158.4c2,0.3,3.9,1.1,5.6,2.2c0.6,0.4,1.2,0.8,1.5,1.4c0.3,0.6,0.3,1.4-0.2,1.9
				c-0.2,0.2-0.6,0.4-0.9,0.5c-2.5,0.8-5.2,0.9-7.9,0.8c-0.4,0-0.9,0-1.3-0.1c-0.7-0.2-1.4-0.5-2-0.9c-1.3-0.8-2.7-1.6-3.1-3
				C196.7,158.6,204,158.2,205.7,158.4z"/>
			<path class="st9" d="M239.6,65.9c1.1,1.4,1.4,3.8-0.3,4.6c-0.7,0.3-1.4,0.2-2.1,0.2c-3.4-0.3-17.7,0.3-12.6-5.8
				C227.9,61,236.8,62.4,239.6,65.9z"/>
			<path class="st9" d="M71.8,45c0.5,0.4,1.1,0.9,1.2,1.6c0.2,1.2-1.1,2.2-2.3,2.6c-3.4,1.2-7.3,1-10.6-0.6
				c-0.4-0.2-0.9-0.5-1.1-0.8c-1.8-2.4-2-7.5,1.9-7.2C64.7,40.6,68.8,42.8,71.8,45z"/>
			<path class="st9" d="M157.5,164.5c0.3,0.1,0.5,0.2,0.8,0.3c1.2,0.5,2.5,1,3,2.2c2.4,5.4-13.3,5.8-16.3-2c-0.6-1.6,0.9-3.2,2.6-3
				C151,162.3,154.3,163.4,157.5,164.5z"/>
			<path class="st9" d="M564.3,28.3c-2.2,3-10,1.9-8-2.7C558.1,21.5,567,24.7,564.3,28.3z"/>
			<path class="st9" d="M1485.6,89.7c-2.2,3-10,1.9-8-2.7C1479.5,82.8,1488.3,86.1,1485.6,89.7z"/>
			<path class="st9" d="M508.3,134.6c-2.2,3-10,1.9-8-2.7C502.1,127.7,511,130.9,508.3,134.6z"/>
			<path class="st9" d="M221.2,176.2c1.6,0.9,3.1,2.5,2.7,4.1c-0.4,1.4-1.9,2.3-3.3,2.9c-1.3,0.6-2.6,1.2-4,1.5
				c-4.1,0.9-12.1-2.7-11.2-7.7C206.1,172.4,217.5,174.1,221.2,176.2z"/>
			<path class="st9" d="M548.3,93.3c0.7,0.6,1.5,1.2,1.7,2.1c0.3,1.7-1.5,2.9-3.2,3.5c-4.7,1.6-10,1.3-14.4-0.9
				c-0.6-0.3-1.2-0.6-1.6-1.1c-2.5-3.2-2.8-10.3,2.6-9.9C538.7,87.4,544.4,90.3,548.3,93.3z"/>
			<path class="st9" d="M1062.4,145c0.3,0.1,0.5,0.2,0.8,0.3c1.2,0.5,2.5,1,3,2.2c2.4,5.4-13.3,5.8-16.3-2c-0.6-1.6,0.9-3.2,2.6-3
				C1055.9,142.8,1059.3,143.8,1062.4,145z"/>
			<path class="st9" d="M1034.1,90.4c-2.2,3-10,1.9-8-2.7C1027.9,83.5,1036.7,86.7,1034.1,90.4z"/>
			<path class="st9" d="M1149.1,129.8c2.2,1.2,4.2,3.4,3.6,5.7c-0.5,1.9-2.6,3.1-4.5,4c-1.8,0.8-3.6,1.7-5.5,2.1
				c-5.6,1.2-16.6-3.7-15.4-10.5C1128.6,124.7,1144.2,127,1149.1,129.8z"/>
			<path class="st9" d="M710.4,84.1c0.7,0.6,1.5,1.2,1.7,2.1c0.3,1.7-1.5,2.9-3.2,3.5c-4.7,1.6-10,1.3-14.4-0.9
				c-0.6-0.3-1.2-0.6-1.6-1.1c-2.5-3.2-2.8-10.3,2.6-9.9C700.7,78.2,706.4,81.1,710.4,84.1z"/>
			<path class="st9" d="M1521.8,52.6c0.3,0.1,0.5,0.2,0.8,0.3c1.2,0.5,2.5,1,3,2.2c2.4,5.4-13.3,5.8-16.3-2c-0.6-1.6,0.9-3.2,2.6-3
				C1515.2,50.4,1518.6,51.5,1521.8,52.6z"/>
			<path class="st9" d="M1521.5,89.6c-2.2,3-10,1.9-8-2.7C1515.3,82.7,1524.1,86,1521.5,89.6z"/>
			<path class="st9" d="M635.8,60.9c2.2,1.2,4.2,3.4,3.6,5.7c-0.5,1.9-2.6,3.1-4.5,4c-1.8,0.8-3.6,1.7-5.5,2.1
				c-5.6,1.2-16.6-3.7-15.4-10.5C615.2,55.7,630.8,58.1,635.8,60.9z"/>
		</g>
	</g>
</g>
</svg>
