<?xml version="1.0" encoding="utf-8"?>
<!-- Generator: Adobe Illustrator 24.0.2, SVG Export Plug-In . SVG Version: 6.00 Build 0)  -->
<svg version="1.1" id="Layer_1" xmlns="http://www.w3.org/2000/svg" xmlns:xlink="http://www.w3.org/1999/xlink" x="0px" y="0px"
	 viewBox="0 0 1600 198" style="enable-background:new 0 0 1600 198;" xml:space="preserve">
<style type="text/css">
	.st0{fill:url(#SVGID_1_);}
</style>
<linearGradient id="SVGID_1_" gradientUnits="userSpaceOnUse" x1="800" y1="0.6541" x2="800" y2="198">
	<stop  offset="0" style="stop-color:#57BBC1;stop-opacity:0.25"/>
	<stop  offset="1" style="stop-color:#015871"/>
</linearGradient>
<path class="st0" d="M610.1,36.9c28.3,10,58,17.1,88.4,15.9c18.2-0.7,35.8-5.7,53.6-9.5c41.4-8.8,84.6-11,126.7-6.4
	c18.9,2.1,37.8,5.5,56.9,4.5c22.3-1.2,43.6-8.4,64.7-15c25.6-7.9,51.6-15,77.8-21.3c14.9-3.5,34.7-5.2,45.6-4.3
	c35,2.9,55.9,43.2,59.2,72.7c7.4,65.4,166.1-58.1,268-3.4c24.5,13.2,8.7,52.7,149.1,50.8l0,77H0v-77c79.8-3.8,90.3-52.9,124.8-73
	c39.8-23.3,89-30.9,127.1-20.6c59.7,16.1,93,14.9,155,9.7C474.4,31.3,540.7,12.5,610.1,36.9z"/>
</svg>
